<svg width="79" height="24" viewBox="0 0 79 24" fill="none" xmlns="http://www.w3.org/2000/svg">
<path d="M18.4824 23H14.6738L5.35742 9.52344H5.19629V23H0.801758V1.78906H4.66895L13.9121 15.251H14.1025V1.78906H18.4824V23ZM29.1611 23.3076C27.5791 23.3076 26.1973 22.9658 25.0156 22.2822C23.834 21.5986 22.9258 20.6367 22.291 19.3965C21.6562 18.1562 21.3389 16.7256 21.3389 15.1045C21.3389 13.4639 21.6562 12.0283 22.291 10.7979C22.9258 9.55762 23.834 8.5957 25.0156 7.91211C26.1973 7.22852 27.5791 6.88672 29.1611 6.88672C30.7334 6.88672 32.1104 7.22852 33.292 7.91211C34.4834 8.5957 35.3916 9.55762 36.0166 10.7979C36.6416 12.0283 36.9541 13.4639 36.9541 15.1045C36.9541 16.7256 36.6416 18.1562 36.0166 19.3965C35.3916 20.6367 34.4834 21.5986 33.292 22.2822C32.1104 22.9658 30.7334 23.3076 29.1611 23.3076ZM29.1904 19.9531C29.9131 19.9531 30.5234 19.7432 31.0215 19.3232C31.5293 18.9033 31.9102 18.3271 32.1641 17.5947C32.418 16.8525 32.5449 16.0127 32.5449 15.0752C32.5449 14.1279 32.418 13.2881 32.1641 12.5557C31.9102 11.8232 31.5293 11.2471 31.0215 10.8271C30.5234 10.4072 29.9131 10.1973 29.1904 10.1973C28.4482 10.1973 27.8184 10.4072 27.3008 10.8271C26.7832 11.2471 26.3926 11.8232 26.1289 12.5557C25.8652 13.2783 25.7334 14.1182 25.7334 15.0752C25.7334 16.0225 25.8652 16.8623 26.1289 17.5947C26.3926 18.3271 26.7832 18.9033 27.3008 19.3232C27.8184 19.7432 28.4482 19.9531 29.1904 19.9531ZM48.3066 23H43.4287L37.8623 7.0918H42.4619L45.7871 18.5176H45.9629L49.3027 7.0918H53.9023L48.3066 23ZM56.041 7.0918H60.377V23H56.041V7.0918ZM58.209 4.99707C57.7793 4.99707 57.3838 4.89941 57.0225 4.7041C56.6611 4.50879 56.373 4.24023 56.1582 3.89844C55.9434 3.55664 55.8359 3.19043 55.8359 2.7998C55.8359 2.39941 55.9434 2.0332 56.1582 1.70117C56.373 1.35938 56.6611 1.09082 57.0225 0.895508C57.3838 0.700195 57.7793 0.602539 58.209 0.602539C58.6387 0.602539 59.0342 0.700195 59.3955 0.895508C59.7568 1.09082 60.04 1.35938 60.2451 1.70117C60.46 2.0332 60.5674 2.39941 60.5674 2.7998C60.5674 3.19043 60.46 3.55664 60.2451 3.89844C60.04 4.24023 59.7568 4.50879 59.3955 4.7041C59.0342 4.89941 58.6387 4.99707 58.209 4.99707ZM70.9092 23.3076C69.3271 23.3076 67.9453 22.9658 66.7637 22.2822C65.582 21.5986 64.6738 20.6367 64.0391 19.3965C63.4043 18.1562 63.0869 16.7256 63.0869 15.1045C63.0869 13.4639 63.4043 12.0283 64.0391 10.7979C64.6738 9.55762 65.582 8.5957 66.7637 7.91211C67.9453 7.22852 69.3271 6.88672 70.9092 6.88672C72.4814 6.88672 73.8584 7.22852 75.04 7.91211C76.2314 8.5957 77.1396 9.55762 77.7646 10.7979C78.3896 12.0283 78.7021 13.4639 78.7021 15.1045C78.7021 16.7256 78.3896 18.1562 77.7646 19.3965C77.1396 20.6367 76.2314 21.5986 75.04 22.2822C73.8584 22.9658 72.4814 23.3076 70.9092 23.3076ZM70.9385 19.9531C71.6611 19.9531 72.2715 19.7432 72.7695 19.3232C73.2773 18.9033 73.6582 18.3271 73.9121 17.5947C74.166 16.8525 74.293 16.0127 74.293 15.0752C74.293 14.1279 74.166 13.2881 73.9121 12.5557C73.6582 11.8232 73.2773 11.2471 72.7695 10.8271C72.2715 10.4072 71.6611 10.1973 70.9385 10.1973C70.1963 10.1973 69.5664 10.4072 69.0488 10.8271C68.5312 11.2471 68.1406 11.8232 67.877 12.5557C67.6133 13.2783 67.4814 14.1182 67.4814 15.0752C67.4814 16.0225 67.6133 16.8623 67.877 17.5947C68.1406 18.3271 68.5312 18.9033 69.0488 19.3232C69.5664 19.7432 70.1963 19.9531 70.9385 19.9531Z" fill="url(#paint0_linear_135_795)"/>
<defs>
<linearGradient id="paint0_linear_135_795" x1="-1" y1="12" x2="80" y2="12" gradientUnits="userSpaceOnUse">
<stop stop-color="#665BE1"/>
<stop offset="1" stop-color="#3F22F3"/>
</linearGradient>
</defs>
</svg>
